<svg xmlns="http://www.w3.org/2000/svg" viewBox="0 0 60 60" width="60" height="60" preserveAspectRatio="xMidYMid slice" style="width: 100%; height: 100%; transform: translate3d(0px, 0px, 0px);"><defs><clipPath id="__lottie_element_2"><rect width="60" height="60" x="0" y="0"></rect></clipPath></defs><g clip-path="url(#__lottie_element_2)"><g transform="matrix(1,0,0,1,30,30)" opacity="1" style="display: block;"><g opacity="1" transform="matrix(1,0,0,1,0,0)"><path fill="rgb(255,43,84)" fill-opacity="1" d=" M24,0 C24,13.255000114440918 13.255000114440918,24 0,24 C-13.255000114440918,24 -24,13.255000114440918 -24,0 C-24,-13.255000114440918 -13.255000114440918,-24 0,-24 C13.255000114440918,-24 24,-13.255000114440918 24,0z"></path><path stroke-linecap="butt" stroke-linejoin="miter" fill-opacity="0" stroke-miterlimit="4" stroke="rgb(255,43,84)" stroke-opacity="1" stroke-width="0" d=" M24,0 C24,13.255000114440918 13.255000114440918,24 0,24 C-13.255000114440918,24 -24,13.255000114440918 -24,0 C-24,-13.255000114440918 -13.255000114440918,-24 0,-24 C13.255000114440918,-24 24,-13.255000114440918 24,0z"></path></g></g><g transform="matrix(1,0,0,1,30,30.125)" opacity="1" style="display: block;"><g opacity="1" transform="matrix(1,0,0,1,0,0)"><path fill="rgb(255,43,84)" fill-opacity="1" d=" M0,-9 C0,-9 0,9 0,9"></path><path stroke-linecap="round" stroke-linejoin="miter" fill-opacity="0" stroke-miterlimit="4" stroke="rgb(255,255,255)" stroke-opacity="1" stroke-width="4" d=" M0,-9 C0,-9 0,9 0,9"></path></g></g><g style="display: none;"><g><path stroke-linecap="round" stroke-linejoin="miter" fill-opacity="0" stroke-miterlimit="4"></path></g></g><g transform="matrix(0,1,-1,0,30,30.125)" opacity="1" style="display: block;"><g opacity="1" transform="matrix(0.9297400116920471,0,0,1.0041899681091309,0,0)"><path stroke-linecap="round" stroke-linejoin="miter" fill-opacity="0" stroke-miterlimit="4" stroke="rgb(255,255,255)" stroke-opacity="1" stroke-width="4" d=" M-0.125,-9 C-0.125,-9 -0.125,9 -0.125,9"></path><path stroke-linecap="round" stroke-linejoin="round" fill-opacity="0" stroke="rgb(255,255,255)" stroke-opacity="1" stroke-width="4" d=" M-0.125,-9 C-0.125,-9 -0.125,9 -0.125,9"></path></g><g opacity="1" transform="matrix(1,0,0,1,0,0)"><path stroke-linecap="butt" stroke-linejoin="miter" fill-opacity="0" stroke-miterlimit="4" stroke="rgb(255,255,255)" stroke-opacity="1" stroke-width="4" d=" M0.06199999898672104,0.06199999898672104"></path></g></g></g></svg>