<svg width="16" height="16" viewBox="0 0 16 16" fill="none" xmlns="http://www.w3.org/2000/svg">
<path fill-rule="evenodd" clip-rule="evenodd" d="M7.07034 12.2868C5.99113 13.366 4.40592 13.3547 3.5256 12.4743C2.64529 11.594 2.63392 10.0087 3.71313 8.9295C4.08066 8.56196 4.08066 7.96606 3.71313 7.59853C3.3456 7.23099 2.74972 7.23099 2.3822 7.59853C0.666022 9.31475 0.484919 12.0955 2.19467 13.8053C3.90442 15.5151 6.68509 15.334 8.40127 13.6178L9.76634 12.2527C11.209 10.81 11.5617 8.6404 10.6383 6.95772C10.3882 6.50205 9.81608 6.3354 9.36044 6.58547C8.90479 6.83555 8.73813 7.40767 8.9882 7.86333C9.4792 8.75798 9.33149 10.0256 8.4354 10.9217L7.07034 12.2868ZM8.92966 3.7132C10.0089 2.63397 11.5941 2.64534 12.4744 3.52567C13.3547 4.40601 13.3661 5.99127 12.2869 7.0705C11.9193 7.43804 11.9193 8.03393 12.2869 8.40147C12.6544 8.76901 13.2503 8.76901 13.6178 8.40147C15.334 6.68525 15.5151 3.9045 13.8053 2.1947C12.0956 0.484905 9.31491 0.666013 7.59873 2.38223L6.23366 3.74734C4.791 5.19004 4.43827 7.3596 5.36174 9.04228C5.61182 9.49795 6.18391 9.6646 6.63956 9.41453C7.09521 9.16445 7.26187 8.59233 7.0118 8.13667C6.5208 7.24202 6.66851 5.97441 7.56459 5.07831L8.92966 3.7132ZM9.38198 8.99456C9.38441 8.57236 9.28558 8.16274 9.09043 7.80716C9.02154 7.68164 8.98875 7.54603 8.98858 7.41228C8.98874 7.54605 9.02153 7.68168 9.09043 7.80722C9.28557 8.16279 9.3844 8.57238 9.38198 8.99456ZM11.0168 9.3345C10.9306 10.3621 10.4764 11.3776 9.68388 12.1701L8.31881 13.5352C6.64173 15.2124 3.93515 15.3808 2.27713 13.7228C1.49184 12.9375 1.11628 11.9169 1.11667 10.882C1.11626 11.917 1.49183 12.9375 2.27713 13.7228C3.93515 15.3809 6.64173 15.2124 8.31881 13.5353L9.68388 12.1702C10.4764 11.3777 10.9306 10.3622 11.0168 9.3345ZM3.87216 8.26398C3.87216 8.47498 3.79166 8.68598 3.63067 8.84697C3.04591 9.43175 2.76681 10.1639 2.76641 10.8627C2.76683 10.164 3.04592 9.4318 3.63067 8.84704C3.79168 8.68603 3.87217 8.475 3.87216 8.26398ZM8.84721 3.63074C9.96644 2.51148 11.6257 2.51202 12.5569 3.44321C12.9961 3.88243 13.2282 4.48363 13.2335 5.11374C13.2282 4.48361 12.9961 3.88238 12.5569 3.44315C11.6257 2.51195 9.96644 2.51141 8.84721 3.63068L7.48214 4.99578C6.89537 5.58257 6.61503 6.32592 6.618 7.0316C6.61505 6.32594 6.89539 5.58262 7.48214 4.99585L8.84721 3.63074ZM7.01142 8.58765C7.01181 8.87928 6.85713 9.16209 6.58346 9.3123C6.18427 9.53139 5.68306 9.38538 5.46397 8.98618C5.13211 8.38149 4.96964 7.71106 4.96807 7.03494C4.96965 7.71104 5.13212 8.38145 5.46397 8.98611C5.68306 9.38531 6.18427 9.53132 6.58346 9.31223C6.85711 9.16204 7.01178 8.87926 7.01142 8.58765ZM12.1356 7.84945C12.1594 8.02122 12.2373 8.18694 12.3693 8.31901C12.6913 8.64101 13.2134 8.64101 13.5353 8.31901C14.4247 7.42966 14.8898 6.25082 14.8833 5.09235C14.8898 6.2508 14.4247 7.42962 13.5353 8.31895C13.2134 8.64094 12.6913 8.64094 12.3693 8.31895C12.2373 8.18689 12.1594 8.0212 12.1356 7.84945Z" fill="#161823"/>
</svg>
